REM DIRINDEX 1\2,1\3
REM DIRNAME cjc102,folder01,folder02
TITLE ""
FILE "CD1Track14.mp3" MP3
  TRACK 01 AUDIO
    TITLE "0:"
    INDEX 01 00:00:00
  TRACK 02 AUDIO
    TITLE "2:cjc102_0563"
    INDEX 01 00:00:25
  TRACK 03 AUDIO
    TITLE "0:"
    INDEX 01 00:01:26
  TRACK 04 AUDIO
    TITLE "3:cjc102_0564"
    INDEX 01 00:01:30
  TRACK 05 AUDIO
    TITLE "0:"
    INDEX 01 00:02:63
  TRACK 06 AUDIO
    TITLE "3:cjc102_0565"
    INDEX 01 00:03:19
  TRACK 07 AUDIO
    TITLE "0:"
    INDEX 01 00:09:02
  TRACK 08 AUDIO
    TITLE "2:cjc102_0566"
    INDEX 01 00:09:08
  TRACK 09 AUDIO
    TITLE "0:"
    INDEX 01 00:10:19
  TRACK 10 AUDIO
    TITLE "3:cjc102_0567"
    INDEX 01 00:11:44
  TRACK 11 AUDIO
    TITLE "0:"
    INDEX 01 00:12:38
  TRACK 12 AUDIO
    TITLE "2:cjc102_0568"
    INDEX 01 00:12:71
  TRACK 13 AUDIO
    TITLE "0:"
    INDEX 01 00:14:07
  TRACK 14 AUDIO
    TITLE "3:cjc102_0569"
    INDEX 01 00:14:64
  TRACK 15 AUDIO
    TITLE "0:"
    INDEX 01 00:15:50
  TRACK 16 AUDIO
    TITLE "2:cjc102_0570"
    INDEX 01 00:15:74
  TRACK 17 AUDIO
    TITLE "0:"
    INDEX 01 00:17:16
  TRACK 18 AUDIO
    TITLE "3:cjc102_0571"
    INDEX 01 00:17:65
  TRACK 19 AUDIO
    TITLE "0:"
    INDEX 01 00:18:64
  TRACK 20 AUDIO
    TITLE "2:cjc102_0572"
    INDEX 01 00:19:34
  TRACK 21 AUDIO
    TITLE "0:"
    INDEX 01 00:20:43
  TRACK 22 AUDIO
    TITLE "3:cjc102_0573"
    INDEX 01 00:21:04
  TRACK 23 AUDIO
    TITLE "0:"
    INDEX 01 00:22:01
  TRACK 24 AUDIO
    TITLE "2:cjc102_0574"
    INDEX 01 00:22:34
  TRACK 25 AUDIO
    TITLE "0:"
    INDEX 01 00:23:40
  TRACK 26 AUDIO
    TITLE "3:cjc102_0575"
    INDEX 01 00:24:27
  TRACK 27 AUDIO
    TITLE "0:"
    INDEX 01 00:25:09
  TRACK 28 AUDIO
    TITLE "2:cjc102_0576"
    INDEX 01 00:25:56
  TRACK 29 AUDIO
    TITLE "0:"
    INDEX 01 00:27:14
  TRACK 30 AUDIO
    TITLE "3:cjc102_0577"
    INDEX 01 00:27:65
  TRACK 31 AUDIO
    TITLE "0:"
    INDEX 01 00:28:64
  TRACK 32 AUDIO
    TITLE "2:cjc102_0578"
    INDEX 01 00:29:42
  TRACK 33 AUDIO
    TITLE "0:"
    INDEX 01 00:31:04
  TRACK 34 AUDIO
    TITLE "3:cjc102_0579"
    INDEX 01 00:31:71
  TRACK 35 AUDIO
    TITLE "0:"
    INDEX 01 00:32:68
  TRACK 36 AUDIO
    TITLE "2:cjc102_0580"
    INDEX 01 00:33:73
  TRACK 37 AUDIO
    TITLE "0:"
    INDEX 01 00:35:12
  TRACK 38 AUDIO
    TITLE "3:cjc102_0581"
    INDEX 01 00:36:03
  TRACK 39 AUDIO
    TITLE "0:"
    INDEX 01 00:37:01
  TRACK 40 AUDIO
    TITLE "2:cjc102_0582"
    INDEX 01 00:37:54
  TRACK 41 AUDIO
    TITLE "0:"
    INDEX 01 00:38:61
  TRACK 42 AUDIO
    TITLE "3:cjc102_0583"
    INDEX 01 00:39:54
  TRACK 43 AUDIO
    TITLE "0:"
    INDEX 01 00:40:46
  TRACK 44 AUDIO
    TITLE "2:cjc102_0584"
    INDEX 01 00:41:10
  TRACK 45 AUDIO
    TITLE "0:"
    INDEX 01 00:42:27
  TRACK 46 AUDIO
    TITLE "3:cjc102_0585"
    INDEX 01 00:43:17
  TRACK 47 AUDIO
    TITLE "0:"
    INDEX 01 00:44:14
  TRACK 48 AUDIO
    TITLE "2:cjc102_0586"
    INDEX 01 00:44:50
  TRACK 49 AUDIO
    TITLE "0:"
    INDEX 01 00:45:63
  TRACK 50 AUDIO
    TITLE "3:cjc102_0587"
    INDEX 01 00:46:45
  TRACK 51 AUDIO
    TITLE "0:"
    INDEX 01 00:47:54
  TRACK 52 AUDIO
    TITLE "2:cjc102_0588"
    INDEX 01 00:47:74
  TRACK 53 AUDIO
    TITLE "0:"
    INDEX 01 00:49:25
  TRACK 54 AUDIO
    TITLE "3:cjc102_0589"
    INDEX 01 00:49:72
  TRACK 55 AUDIO
    TITLE "0:"
    INDEX 01 00:50:74
  TRACK 56 AUDIO
    TITLE "2:cjc102_0590"
    INDEX 01 00:51:26
  TRACK 57 AUDIO
    TITLE "0:"
    INDEX 01 00:52:36
  TRACK 58 AUDIO
    TITLE "3:cjc102_0591"
    INDEX 01 00:53:19
  TRACK 59 AUDIO
    TITLE "0:"
    INDEX 01 00:54:36
  TRACK 60 AUDIO
    TITLE "2:cjc102_0592"
    INDEX 01 00:54:68
  TRACK 61 AUDIO
    TITLE "0:"
    INDEX 01 00:56:02
  TRACK 62 AUDIO
    TITLE "3:cjc102_0593"
    INDEX 01 00:56:59
  TRACK 63 AUDIO
    TITLE "0:"
    INDEX 01 00:57:74
  TRACK 64 AUDIO
    TITLE "2:cjc102_0594"
    INDEX 01 00:58:22
  TRACK 65 AUDIO
    TITLE "0:"
    INDEX 01 00:59:30
